# https://github.com/mikedh/trimesh

o geometry_0
v -0.50000000 0.00000000 -0.50000000 0.52941176 0.30588235 0.13725490
v -0.50000000 0.00000000 0.50000000 0.52941176 0.30588235 0.13725490
v -0.50000000 1.00000000 -0.50000000 0.52941176 0.30588235 0.13725490
v -0.50000000 1.00000000 0.50000000 0.52941176 0.30588235 0.13725490
v 0.50000000 0.00000000 -0.50000000 0.52941176 0.30588235 0.13725490
v 0.50000000 0.00000000 0.50000000 0.52941176 0.30588235 0.13725490
v 0.50000000 1.00000000 -0.50000000 0.52941176 0.30588235 0.13725490
v 0.50000000 1.00000000 0.50000000 0.52941176 0.30588235 0.13725490
f 2 4 1
f 5 2 1
f 1 4 3
f 3 5 1
f 2 8 4
f 6 2 5
f 6 8 2
f 4 8 3
f 7 5 3
f 3 8 7
f 7 6 5
f 8 6 7

o geometry_1
v -0.54000000 0.45000000 0.46000000 0.31372549 0.17647059 0.08627451
v -0.54000000 0.45000000 0.56000000 0.31372549 0.17647059 0.08627451
v -0.54000000 0.55000000 0.46000000 0.31372549 0.17647059 0.08627451
v -0.54000000 0.55000000 0.56000000 0.31372549 0.17647059 0.08627451
v 0.54000000 0.45000000 0.46000000 0.31372549 0.17647059 0.08627451
v 0.54000000 0.45000000 0.56000000 0.31372549 0.17647059 0.08627451
v 0.54000000 0.55000000 0.46000000 0.31372549 0.17647059 0.08627451
v 0.54000000 0.55000000 0.56000000 0.31372549 0.17647059 0.08627451
f 10 12 9
f 13 10 9
f 9 12 11
f 11 13 9
f 10 16 12
f 14 10 13
f 14 16 10
f 12 16 11
f 15 13 11
f 11 16 15
f 15 14 13
f 16 14 15

o geometry_2
v -0.54000000 0.45000000 -0.56000000 0.31372549 0.17647059 0.08627451
v -0.54000000 0.45000000 -0.46000000 0.31372549 0.17647059 0.08627451
v -0.54000000 0.55000000 -0.56000000 0.31372549 0.17647059 0.08627451
v -0.54000000 0.55000000 -0.46000000 0.31372549 0.17647059 0.08627451
v 0.54000000 0.45000000 -0.56000000 0.31372549 0.17647059 0.08627451
v 0.54000000 0.45000000 -0.46000000 0.31372549 0.17647059 0.08627451
v 0.54000000 0.55000000 -0.56000000 0.31372549 0.17647059 0.08627451
v 0.54000000 0.55000000 -0.46000000 0.31372549 0.17647059 0.08627451
f 18 20 17
f 21 18 17
f 17 20 19
f 19 21 17
f 18 24 20
f 22 18 21
f 22 24 18
f 20 24 19
f 23 21 19
f 19 24 23
f 23 22 21
f 24 22 23

o geometry_3
v 0.46000000 0.45000000 -0.54000000 0.31372549 0.17647059 0.08627451
v 0.46000000 0.45000000 0.54000000 0.31372549 0.17647059 0.08627451
v 0.46000000 0.55000000 -0.54000000 0.31372549 0.17647059 0.08627451
v 0.46000000 0.55000000 0.54000000 0.31372549 0.17647059 0.08627451
v 0.56000000 0.45000000 -0.54000000 0.31372549 0.17647059 0.08627451
v 0.56000000 0.45000000 -0.5400000 0.31372549 0.17647059 0.08627451
v 0.56000000 0.55000000 -0.54000000 0.31372549 0.17647059 0.08627451
v 0.56000000 0.55000000 0.5400000 0.31372549 0.17647059 0.08627451
v -0.56000000 0.45000000 -0.54000000 0.31372549 0.17647059 0.08627451
v -0.56000000 0.45000000 0.54000000 0.31372549 0.17647059 0.08627451
v -0.56000000 0.55000000 -0.54000000 0.31372549 0.17647059 0.08627451
v -0.56000000 0.55000000 0.54000000 0.31372549 0.17647059 0.08627451
v -0.46000000 0.45000000 -0.54000000 0.31372549 0.17647059 0.08627451
v -0.46000000 0.45000000 0.54000000 0.31372549 0.17647059 0.08627451
v -0.46000000 0.55000000 -0.5400000 0.31372549 0.17647059 0.08627451
v -0.46000000 0.55000000 0.54000000 0.31372549 0.17647059 0.08627451
v 0.47000000 -0.04000000 0.47000000 0.31372549 0.17647059 0.08627451
v 0.47000000 -0.04000000 0.55000000 0.31372549 0.17647059 0.08627451
v 0.47000000 1.04000000 0.47000000 0.31372549 0.17647059 0.08627451
v 0.47000000 1.04000000 0.55000000 0.31372549 0.17647059 0.08627451
v 0.55000000 -0.04000000 0.47000000 0.31372549 0.17647059 0.08627451
v 0.55000000 -0.04000000 0.55000000 0.31372549 0.17647059 0.08627451
v 0.55000000 1.04000000 0.47000000 0.31372549 0.17647059 0.08627451
v 0.55000000 1.04000000 0.55000000 0.31372549 0.17647059 0.08627451
f 42 44 41
f 45 42 41
f 41 44 43
f 43 45 41
f 42 48 44
f 46 42 45
f 46 48 42
f 44 48 43
f 47 45 43
f 43 48 47
f 47 46 45
f 48 46 47

o geometry_6
v -0.55000000 -0.04000000 0.47000000 0.31372549 0.17647059 0.08627451
v -0.55000000 -0.04000000 0.55000000 0.31372549 0.17647059 0.08627451
v -0.55000000 1.04000000 0.47000000 0.31372549 0.17647059 0.08627451
v -0.55000000 1.04000000 0.55000000 0.31372549 0.17647059 0.08627451
v -0.47000000 -0.04000000 0.47000000 0.31372549 0.17647059 0.08627451
v -0.47000000 -0.04000000 0.55000000 0.31372549 0.17647059 0.08627451
v -0.47000000 1.04000000 -0.47000000 0.31372549 0.17647059 0.08627451
v -0.47000000 1.04000000 0.55000000 0.31372549 0.17647059 0.08627451
v 0.47000000 -0.04000000 -0.55000000 0.31372549 0.17647059 0.08627451
v 0.47000000 -0.04000000 -0.47000000 0.31372549 0.17647059 0.08627451
v 0.4700000 1.04000000 -0.55000000 0.31372549 0.17647059 0.08627451
v 0.47000000 1.04000000 -0.47000000 0.31372549 0.17647059 0.08627451
v 0.55000000 -0.04000000 -0.55000000 0.31372549 0.17647059 0.08627451
v 0.55000000 -0.0400000 -0.47000000 0.31372549 0.17647059 0.08627451
v 0.55000000 1.0400000 -0.55000000 0.31372549 0.17647059 0.08627451
v 0.55000000 1.04000000 -0.47000000 0.31372549 0.17647059 0.08627451
f 58 60 57
f 61 58 57
f 57 60 59
f 59 61 57
f 58 64 60
f 62 58 61
f 62 64 58
f 60 64 59
f 63 61 59
f 59 64 63
f 63 62 61
f 64 62 63

o geometry_8
v -0.55000000 -0.04000000 -0.550000000 0.31372549 0.17647059 0.08627451
v -0.55000000 -0.04000000 -0.47000000 0.31372549 0.17647059 0.08627451
v -0.55000000 1.0400000 -0.55000000 0.31372549 0.17647059 0.08627451
v -0.55000000 1.0400000 -0.47000000 0.31372549 0.17647059 0.08627451
v -0.47000000 -0.04000000 -0.55000000 0.31372549 0.17647059 0.08627451
v -0.47000000 -0.0400000 -0.47000000 0.31372549 0.17647059 0.08627451
v -0.47000000 1.0400000 -0.55000000 0.31372549 0.17647059 0.08627451
v -0.47000000 1.0400000 -0.47000000 0.31372549 0.17647059 0.08627451
f 66 68 65
f 69 66 65
f 65 68 67
f 67 69 65
f 66 72 68
f 70 66 69
f 70 72 66
f 68 72 67
f 71 69 67
f 67 72 71
f 71 70 69
f 72 70 71

